<svg width="19" height="16" viewBox="0 0 19 16" fill="none" xmlns="http://www.w3.org/2000/svg">
<path d="M9.5 16C9.5 16 0 10.0541 0 4.80938C0 2.15314 2.24958 0 5.02486 0C6.97556 0 8.66742 1.06354 9.5 2.61714C10.3326 1.06354 12.0244 0 13.9751 0C16.7504 0 19 2.15314 19 4.80938C19 10.0541 9.5 16 9.5 16Z" fill="#EC554F"/>
<path d="M9.5 16C9.5 16 0 10.0541 0 4.80938C0 2.15314 2.24958 0 5.02486 0C6.97556 0 8.66742 1.06354 9.5 2.61714C10.3326 1.06354 12.0244 0 13.9751 0C16.7504 0 19 2.15314 19 4.80938C19 10.0541 9.5 16 9.5 16Z" fill="#EC554F"/>
<path d="M9.5 16C9.5 16 0 10.0541 0 4.80938C0 2.15314 2.24958 0 5.02486 0C6.97556 0 8.66742 1.06354 9.5 2.61714C10.3326 1.06354 12.0244 0 13.9751 0C16.7504 0 19 2.15314 19 4.80938C19 10.0541 9.5 16 9.5 16Z" stroke="white" stroke-width="2"/>
</svg>
