<svg width="80" height="80" viewBox="0 0 80 80" fill="none" xmlns="http://www.w3.org/2000/svg">
<rect width="80" height="80" fill="#EEEEEE"/>
<path d="M70 13.03L66.97 10L10 66.97L13.03 70L17.3157 65.7143H61.4286C62.5647 65.7126 63.6538 65.2605 64.4572 64.4572C65.2605 63.6538 65.7126 62.5647 65.7143 61.4286V17.3157L70 13.03ZM61.4286 61.4286H21.6014L38.3007 44.7293L43.3986 49.8271C44.2023 50.6306 45.2922 51.0819 46.4286 51.0819C47.565 51.0819 48.6549 50.6306 49.4586 49.8271L52.8571 46.4286L61.4286 54.9936V61.4286ZM61.4286 48.9314L55.8871 43.39C55.0835 42.5866 53.9936 42.1352 52.8571 42.1352C51.7207 42.1352 50.6308 42.5866 49.8271 43.39L46.4286 46.7886L41.335 41.695L61.4286 21.6014V48.9314ZM18.5714 52.8571V46.4286L29.2857 35.7207L32.2279 38.665L35.2621 35.6307L32.3157 32.6843C31.512 31.8808 30.4221 31.4295 29.2857 31.4295C28.1493 31.4295 27.0594 31.8808 26.2557 32.6843L18.5714 40.3686V18.5714H52.8571V14.2857H18.5714C17.4351 14.2868 16.3457 14.7387 15.5422 15.5422C14.7387 16.3457 14.2868 17.4351 14.2857 18.5714V52.8571H18.5714Z" fill="white"/>
</svg>
